# xmcd CD database file
#
# Track frame offsets:
#	150
#	22598
#	42448
#	59418
#	74989
#	90178
#	104463
#	123432
#	141389
#	161462
#
# Disc length: 2437 seconds
#
# Revision: 1
# Processed by: cddbd v1.4PL0 Copyright (c) Steve Scherf et al.
# Submitted via: CDex 1.50beta10
#
DISCID=8709830a
DTITLE=Ken Edwards - Lui Dire Vol1
DYEAR=2001
DGENRE=Zouk
TTITLE0=Bridge Over Trouble Water
TTITLE1=Noting Gonna
TTITLE2=Stand By Me
TTITLE3=Only You
TTITLE4=Stock On You
TTITLE5=On Chain Melody
TTITLE6=Racin Lanmou
TTITLE7=Hello
TTITLE8=Yesterday
TTITLE9=My Way
EXTD=YEAR: 2001
EXTT0=
EXTT1=
EXTT2=
EXTT3=
EXTT4=
EXTT5=
EXTT6=
EXTT7=
EXTT8=
EXTT9=
PLAYORDER=
